<svg width="117" height="101" viewBox="0 0 117 101" fill="none" xmlns="http://www.w3.org/2000/svg">
<ellipse cx="53" cy="51.5" rx="53" ry="49.5" fill="#3E7168"/>
<ellipse cx="64" cy="49.5" rx="53" ry="49.5" fill="#2F4650"/>
<path d="M22.5298 53.6129C18.4297 43.9537 22.9362 32.7996 32.5955 28.6995L70.8211 12.4736C80.4803 8.37355 91.6345 12.8801 95.7346 22.5393L101.205 35.4264L28 66.5L22.5298 53.6129Z" fill="#3D5366"/>
<path d="M16.7043 28.0765C17.0872 29.202 19.7761 41.2572 22.5698 40.6124C26.5507 39.6938 29.2754 34.2603 33.1505 32.6769C37.3103 30.9772 36.5569 35.4264 38.6709 37.0472C40.3143 38.3071 42.6283 28.9937 42.9263 28.1915C43.7008 26.1062 41.7942 44.7954 46.2615 36.3571C46.9343 35.0864 47.128 38.2263 48.2166 38.3123C51.0701 38.5376 53.9088 33.4297 55.9222 31.9868C58.639 30.0397 58.958 35.7971 58.9124 37.2772C58.7757 41.7205 48.065 32.222 47.7566 31.9868C47.6182 31.8812 35.7589 22.6263 36.0258 22.3261C36.524 21.7656 46.6869 22.257 47.8716 21.9811C50.3287 21.4089 52.4667 20.5709 54.4271 18.9909C55.1315 18.4231 55.1595 17.0252 56.0372 16.8057C56.936 16.581 56.7503 18.519 57.1873 19.3359C58.1953 21.2204 59.7623 23.8336 61.4426 25.2013C68.3096 30.7907 64.525 8.41088 68.4581 28.0765" stroke="#3E7168" stroke-width="3" stroke-linecap="round"/>
<path d="M50.9563 36.9369C51.2018 36.8327 51.5153 36.7865 51.897 36.7984C52.2786 36.8102 52.6416 36.8806 52.9861 37.0096C52.7163 36.5447 52.4412 36.1183 52.1607 35.7304C51.8872 35.3251 51.5594 34.9283 51.1773 34.54C50.8075 34.1466 50.3581 33.7362 49.8291 33.3089C49.3001 32.8817 48.6636 32.4059 47.9196 31.8816C47.9096 31.7555 47.9346 31.5928 47.9949 31.3934C48.0674 31.1888 48.1573 30.9913 48.2648 30.8008C48.3793 30.5929 48.5016 30.4033 48.6318 30.2322C48.7742 30.0559 48.92 29.9216 49.0691 29.8293C49.5743 30.0639 50.1027 30.4045 50.6544 30.8511C51.2009 31.2854 51.7314 31.7845 52.2459 32.3483C52.7552 32.8998 53.2197 33.4993 53.6394 34.1468C54.0714 34.789 54.4228 35.4293 54.6937 36.0675C54.9646 36.7057 55.1697 37.3936 55.309 38.1312C55.4605 38.8635 55.5454 39.6096 55.5638 40.3695C55.5893 41.1119 55.5587 41.8419 55.4722 42.5594C55.3857 43.2769 55.2424 43.9461 55.0424 44.5669C54.8547 45.1825 54.6121 45.72 54.3146 46.1795C54.0224 46.6512 53.6832 47.0124 53.2972 47.2632C52.4086 47.5245 51.6409 47.5244 50.9941 47.2631C50.3647 47.0088 49.8833 46.4889 49.5498 45.7034C49.3727 45.2861 49.2413 44.8059 49.1557 44.2629C49.0823 43.7146 49.0483 43.1569 49.0538 42.5897C49.0663 42.005 49.1173 41.4256 49.2069 40.8517C49.3035 40.2603 49.4332 39.7127 49.596 39.2091C49.7711 38.7002 49.9696 38.2466 50.1916 37.8482C50.4136 37.4498 50.6685 37.146 50.9563 36.9369ZM52.8373 46.5893C53.2044 46.2597 53.4959 45.7521 53.7119 45.0665C53.9278 44.381 54.0644 43.6277 54.1215 42.8068C54.1734 41.9736 54.1396 41.1262 54.02 40.2644C53.9075 39.3851 53.6976 38.5834 53.3902 37.8593C53.3016 37.6506 53.2469 37.5217 53.2261 37.4726C53.2052 37.4236 53.1783 37.3771 53.1452 37.3332C52.9027 37.581 52.6783 37.9224 52.4719 38.3577C52.2656 38.7929 52.0801 39.2772 51.9154 39.8106C51.7455 40.3318 51.6097 40.8819 51.5079 41.4611C51.4061 42.0402 51.335 42.6063 51.2945 43.1594C51.2541 43.7125 51.2549 44.2264 51.2971 44.701C51.3392 45.1756 51.428 45.5725 51.5634 45.8916C51.8239 46.5052 52.2486 46.7378 52.8373 46.5893ZM59.3693 44.3381C59.1625 44.3969 58.9174 44.3995 58.634 44.346C58.368 44.2996 58.1679 44.2035 58.0336 44.0577C57.9711 43.9104 57.9087 43.7124 57.8466 43.4635C57.7967 43.2095 57.7529 42.9529 57.7153 42.6936C57.6725 42.4221 57.6374 42.169 57.6102 41.9343C57.5778 41.6873 57.5505 41.5034 57.5281 41.3825C57.6754 41.32 57.8751 41.2787 58.1273 41.2585C58.3918 41.2332 58.6692 41.2385 58.9597 41.2746C59.2573 41.2931 59.5469 41.344 59.8285 41.4273C60.1171 41.493 60.3531 41.5884 60.5365 41.7133C60.5303 42.0057 60.4881 42.2988 60.4101 42.5927C60.332 42.8865 60.2287 43.1549 60.1 43.3978C59.9888 43.6478 59.8656 43.8522 59.7302 44.011C59.6001 44.1822 59.4798 44.2912 59.3693 44.3381ZM66.2389 31.9491C66.3256 32.1875 66.3868 32.4512 66.4226 32.7402C66.4654 33.0117 66.482 33.2726 66.4724 33.5229C66.4575 33.761 66.4236 33.971 66.3704 34.1528C66.3173 34.3347 66.2416 34.4465 66.1434 34.4882C66.0032 34.5332 65.8843 34.4751 65.7868 34.3136C65.7712 34.2768 65.76 34.2164 65.7533 34.1323C65.7537 34.0308 65.7514 33.9231 65.7466 33.8093C65.7417 33.6955 65.7307 33.5843 65.7136 33.4756C65.7087 33.3618 65.6907 33.2681 65.6594 33.1945C65.5865 33.0226 65.4836 32.8997 65.3508 32.8257C65.2251 32.7343 65.0947 32.7172 64.9597 32.7745C64.4688 32.9829 64.2247 33.4486 64.2274 34.1717C64.2302 34.8948 64.4842 35.8516 64.9895 37.0421C65.0416 37.1648 65.079 37.2358 65.1017 37.2552C65.3543 37.1335 65.5787 37.031 65.7751 36.9476C65.9785 36.8468 66.1784 36.7547 66.3748 36.6713C66.3975 36.6907 66.4245 36.7372 66.4557 36.8108C66.5026 36.9213 66.5119 37.0115 66.4837 37.0814C66.2274 37.2626 66.0238 37.4142 65.8728 37.5362C65.7289 37.6408 65.6218 37.7297 65.5515 37.803C65.4812 37.8763 65.4442 37.9427 65.4405 38.0022C65.4439 38.0442 65.4612 38.102 65.4925 38.1757C65.5341 38.2739 65.5758 38.3721 65.6175 38.4702C65.6714 38.5632 65.7297 38.6834 65.7922 38.8306C66.2298 39.8616 66.2992 40.8099 66.0003 41.6755C65.7137 42.5359 65.0942 43.2261 64.1417 43.7463C63.9647 43.807 63.7659 43.8334 63.5453 43.8256C63.3247 43.8179 63.0999 43.783 62.8707 43.7209C62.6539 43.6536 62.4476 43.5601 62.2519 43.4404C62.0615 43.3329 61.9052 43.2037 61.7832 43.0527C61.5852 42.5863 61.4959 42.1028 61.5151 41.6021C61.5291 41.0892 61.6341 40.6029 61.83 40.1431C62.033 39.6658 62.3199 39.2327 62.6907 38.8435C63.0685 38.4369 63.5196 38.1006 64.044 37.8345C63.9138 37.5277 63.7554 37.24 63.569 36.9715C63.3826 36.703 63.1953 36.4493 63.0071 36.2106C62.8259 35.9544 62.6499 35.7104 62.4791 35.4787C62.3031 35.2347 62.1604 34.9839 62.051 34.7261C61.9104 34.3947 61.8398 34.0409 61.8394 33.6644C61.8337 33.2757 61.884 32.8995 61.9903 32.5357C62.0914 32.1597 62.2476 31.8109 62.4588 31.4895C62.67 31.1681 62.9195 30.9028 63.2074 30.6938C63.358 30.6733 63.5829 30.7082 63.8819 30.7985C64.1881 30.8714 64.4985 30.9713 64.8132 31.0985C65.1279 31.2256 65.4206 31.3693 65.6914 31.5296C65.957 31.6776 66.1395 31.8174 66.2389 31.9491ZM63.727 42.9229C63.9695 42.6751 64.1701 42.3799 64.3288 42.0373C64.4999 41.6895 64.621 41.3267 64.6924 40.9487C64.7637 40.5708 64.7843 40.1927 64.7541 39.8145C64.7362 39.431 64.6595 39.0797 64.524 38.7606C64.2942 38.9016 64.0736 39.1328 63.8624 39.4542C63.646 39.7634 63.4663 40.1076 63.3231 40.487C63.1748 40.8542 63.0746 41.2154 63.0226 41.5706C62.9706 41.9258 62.9889 42.2078 63.0775 42.4164C63.1921 42.6864 63.4086 42.8553 63.727 42.9229ZM70.1745 39.7516C69.9677 39.8104 69.7225 39.813 69.4391 39.7595C69.1732 39.7131 68.973 39.617 68.8387 39.4712C68.7762 39.3239 68.7139 39.1258 68.6517 38.877C68.6018 38.623 68.5581 38.3663 68.5204 38.1071C68.4776 37.8356 68.4426 37.5825 68.4154 37.3478C68.383 37.1008 68.3556 36.9169 68.3333 36.796C68.4806 36.7335 68.6803 36.6922 68.9325 36.672C69.1969 36.6467 69.4744 36.652 69.7649 36.688C70.0625 36.7066 70.352 36.7575 70.6336 36.8408C70.9223 36.9065 71.1583 37.0019 71.3417 37.1268C71.3354 37.4192 71.2933 37.7123 71.2152 38.0061C71.1372 38.3 71.0338 38.5684 70.9052 38.8113C70.794 39.0613 70.6707 39.2657 70.5354 39.4245C70.4052 39.5957 70.2849 39.7047 70.1745 39.7516ZM72.9951 27.1909C73.3559 27.1537 73.7503 27.247 74.1785 27.4708C74.6015 27.6823 74.9664 27.962 75.2733 28.3097C75.279 28.6984 75.2396 29.1858 75.1553 29.772C75.071 30.3583 74.9919 30.9567 74.918 31.5675C74.8389 32.166 74.7765 32.7357 74.7309 33.2765C74.6923 33.7998 74.7145 34.2105 74.7975 34.5084C74.9053 34.2164 75.0185 33.8859 75.1371 33.5169C75.2627 33.1304 75.3787 32.7552 75.485 32.3915C75.5984 32.0102 75.7064 31.6674 75.809 31.3631C75.9064 31.0466 75.9868 30.8096 76.0504 30.6523C76.1794 30.3078 76.3357 29.9083 76.5194 29.4538C76.6978 28.9869 76.899 28.5394 77.1228 28.1113C77.3537 27.6656 77.6054 27.2691 77.878 26.9216C78.1454 26.5619 78.4263 26.3195 78.7209 26.1945C79.04 26.059 79.3508 26.0575 79.6532 26.1898C79.9627 26.3047 80.2283 26.4527 80.45 26.6338C80.4604 26.6583 80.427 26.716 80.3496 26.8068C80.2793 26.88 80.2 27.0513 80.1115 27.3207C80.0334 27.6145 79.9673 28.0047 79.9131 28.4912C79.8659 28.9603 79.8344 29.4661 79.8185 30.0088C79.8097 30.534 79.8368 31.0585 79.8998 31.5822C79.9627 32.1058 80.0749 32.5579 80.2365 32.9384C80.3667 33.2452 80.4869 33.426 80.597 33.4806C80.7194 33.5301 80.8542 33.5236 81.0015 33.461C81.1365 33.4037 81.2646 33.3131 81.3858 33.1892C81.5071 33.0654 81.6106 32.9852 81.6966 32.9487C81.7561 32.9524 81.8163 32.992 81.8773 33.0675C81.9454 33.1255 81.9925 33.1852 82.0185 33.2466C81.9568 33.3742 81.8767 33.5096 81.7781 33.6528C81.6796 33.796 81.5723 33.9357 81.4563 34.0719C81.3403 34.208 81.2191 34.3319 81.0926 34.4435C80.9784 34.5499 80.8661 34.6266 80.7557 34.6735C80.3997 34.8245 80.0817 34.8943 79.8017 34.8829C79.5391 34.8785 79.3038 34.819 79.0958 34.7045C78.9002 34.5847 78.7283 34.4187 78.5802 34.2063C78.4269 33.9817 78.293 33.7344 78.1784 33.4644C78.1158 33.3171 78.0578 33.1462 78.0042 32.9517C77.9506 32.7572 77.9085 32.5215 77.878 32.2448C77.8422 31.9558 77.8189 31.6108 77.808 31.2099C77.7919 30.7966 77.784 30.3003 77.7843 29.7208C77.7597 29.7312 77.6305 29.8874 77.3966 30.1895C77.1627 30.4916 76.9433 30.8961 76.7385 31.4031C76.3961 32.2003 76.1063 32.9679 75.8691 33.7059C75.6443 34.4387 75.4331 35.238 75.2358 36.104C75.1273 36.5991 75.0234 37.0198 74.9242 37.3661C74.8424 37.7194 74.7461 37.9703 74.6353 38.1188C74.3151 38.0809 74.0363 37.953 73.7989 37.7351C73.5668 37.5294 73.3601 37.2985 73.1789 37.0422C73.0799 36.8091 72.9856 36.5015 72.8959 36.1195C72.8184 35.7323 72.7438 35.3005 72.6719 34.824C72.6071 34.3301 72.559 33.8073 72.5276 33.2557C72.4963 32.7041 72.4833 32.1447 72.4888 31.5775C72.4967 30.2994 72.5607 29.2728 72.6807 28.4977C72.8129 27.7173 72.9177 27.2817 72.9951 27.1909Z" fill="#1E1E1E"/>
</svg>
